<?xml version="1.0" encoding="utf-8"?>
<!-- Generator: Adobe Illustrator 16.0.4, SVG Export Plug-In . SVG Version: 6.00 Build 0)  -->
<!DOCTYPE svg PUBLIC "-//W3C//DTD SVG 1.1//EN" "http://www.w3.org/Graphics/SVG/1.1/DTD/svg11.dtd">
<svg version="1.1" id="レイヤー_1" xmlns="http://www.w3.org/2000/svg" xmlns:xlink="http://www.w3.org/1999/xlink" x="0px"
	 y="0px" width="496.562px" height="139.974px" viewBox="48.218 352.014 496.562 139.974"
	 enable-background="new 48.218 352.014 496.562 139.974" xml:space="preserve">
<path fill="#231F20" d="M78.292,355.963h-28.09c-1.096,0-1.984,0.889-1.984,1.983v16.803c0,1.097,0.89,1.983,1.984,1.983h28.09
	c27.332,0,49.609,22.055,49.974,49.303c0.312,23.19-18.862,42.172-42.056,42.172H70.348c-1.096,0-1.983,0.888-1.983,1.983v16.801
	c0,1.097,0.889,1.984,1.983,1.984h15.799c34.312,0,62.678-27.498,62.894-61.812C149.287,387.945,117.455,355.963,78.292,355.963"/>
<path fill="#231F20" d="M253.083,367.388c0.78-0.769,0.791-2.025,0.021-2.807l-11.785-11.976c-0.77-0.78-2.025-0.791-2.808-0.021
	l-69.094,68.002c-0.79,0.776-0.79,2.052,0,2.828l69.094,68.003c0.781,0.769,2.038,0.759,2.808-0.022l11.785-11.975
	c0.77-0.781,0.759-2.038-0.021-2.808l-54.357-53.497c-0.623-0.612-0.623-1.617,0-2.229L253.083,367.388"/>
<path fill="#231F20" d="M337.623,394.449l17.808-35.614c0.66-1.319-0.3-2.872-1.775-2.872h-67.729c-1.096,0-1.983,0.889-1.983,1.983
	v16.803c0,1.097,0.889,1.983,1.983,1.983h35.332c0.92,0,1.519,0.969,1.105,1.791l-7.426,14.854h-29.012
	c-1.096,0-1.983,0.89-1.983,1.984v16.802c0,1.097,0.889,1.984,1.983,1.984h41.822c14.182,0,26.454,10.523,27.907,24.629
	c1.271,12.333-5.938,23.205-16.5,27.489v-5.712c0-15.694-12.816-29.449-28.51-29.757c-16.501-0.324-29.992,13.167-29.669,29.668
	c0.31,15.691,14.062,28.511,29.757,28.511h18.446c26.018,0,47.206-21.074,47.389-47.05
	C376.733,418.685,359.658,399.131,337.623,394.449 M318.386,468.206h-8.322c-4.589,0-8.321-3.733-8.321-8.321
	c0-4.589,3.732-8.323,8.321-8.323s8.322,3.734,8.322,8.323V468.206z"/>
<path fill="#231F20" d="M486.533,393.377h-27.002v-35.43c0-1.096-0.889-1.984-1.983-1.984h-16.803c-1.096,0-1.983,0.889-1.983,1.984
	v35.878c-23.827,3.229-42.141,24.066-41.327,48.942c0.845,25.9,22.645,46.208,48.56,46.208h40.54c1.097,0,1.983-0.889,1.983-1.984
	V470.19c0-1.097-0.888-1.984-1.983-1.984h-41.325c-15.163,0-27.45-12.551-27.02-27.809c0.416-14.725,12.903-26.25,27.632-26.25
	h40.713c1.097,0,1.983-0.888,1.983-1.984v-16.802C488.518,394.266,487.63,393.377,486.533,393.377"/>
<path fill="#231F20" d="M520.212,445.369h16.801c1.096,0,1.984-0.888,1.984-1.983v-85.438c0-1.096-0.89-1.984-1.984-1.984h-16.801
	c-1.097,0-1.984,0.889-1.984,1.984v85.438C518.228,444.481,519.115,445.369,520.212,445.369"/>
<path fill="#231F20" d="M528.612,456.773c-8.931,0-16.17,7.238-16.17,16.17c0,8.93,7.239,16.17,16.17,16.17
	c8.932,0,16.169-7.24,16.169-16.17C544.781,464.012,537.543,456.773,528.612,456.773"/>
</svg>
